<?xml version="1.0" encoding="UTF-8"?>
<!DOCTYPE svg PUBLIC "-//W3C//DTD SVG 1.1//EN" "http://www.w3.org/Graphics/SVG/1.1/DTD/svg11.dtd">
<!-- Creator: CorelDRAW -->
<svg xmlns="http://www.w3.org/2000/svg" xml:space="preserve" width="60.4068mm" height="49.7814mm" version="1.1" style="shape-rendering:geometricPrecision; text-rendering:geometricPrecision; image-rendering:optimizeQuality; fill-rule:evenodd; clip-rule:evenodd"
viewBox="0 0 6040.68 4978.14"
 xmlns:xlink="http://www.w3.org/1999/xlink"
 xmlns:xodm="http://www.corel.com/coreldraw/odm/2003">
 <defs>
  <style type="text/css">
   <![CDATA[
    .fil2 {fill:#1C1C1C}
    .fil0 {fill:#2A2A7A}
    .fil1 {fill:#3297FC}
    .fil3 {fill:#4F4F4F}
    .fil6 {fill:#9C9C06}
    .fil4 {fill:#C4C42F}
    .fil5 {fill:white}
   ]]>
  </style>
     <clipPath id="id0">
      <rect x="337.47" y="323.37" width="5373.14" height="4659.91"/>
     </clipPath>
     <clipPath id="id1">
      <rect x="1321.23" y="1030.31" width="3405.63" height="3672.54"/>
     </clipPath>
 </defs>
 <g id="Camada_x0020_1">
  <metadata id="CorelCorpID_0Corel-Layer"/>
  <g id="_1456246821104">
   <path class="fil0" d="M-0.53 2989.9l1506.94 281.78 -472.85 -495.01 -28.87 -30.23 -466.2 -488.05 682.57 354.25 312.05 -192.95 34.64 -21.42 263.99 -163.23 1.55 -0.89c63.04,-35.74 171.9,-117.05 192.79,-189.94 13.6,-47.45 -103.38,-96.37 -134.24,-109.04l-705.98 -289.92 760.91 -58.98c53.66,-4.15 161.72,-17.24 204.8,-51.63 8.68,-6.93 7.7,-12.47 7.07,-23.93 -5.3,-97.25 -118.9,-272.57 -170.67,-356.34l-452.3 -731.96 709.44 486.88c104.32,71.59 286.65,174.53 417.86,143.51 110.73,-26.18 157.63,-159.69 179.73,-258.08l177.11 -788.59 177.11 788.59c22.1,98.39 69,231.9 179.73,258.08 131.21,31.02 313.54,-71.92 417.86,-143.51l709.44 -486.88 -452.3 731.96c-51.77,83.77 -165.37,259.09 -170.67,356.34 -0.63,11.46 -1.61,17 7.07,23.93 43.08,34.39 151.14,47.48 204.8,51.63l760.91 58.98 -705.98 289.92c-30.86,12.67 -147.84,61.59 -134.24,109.04 20.96,73.11 129.64,154.11 193.85,190.55l267.72 161.08 33.26 20.02 319.24 192.09 673.52 -349.56 -457.86 479.32 -42.3 44.29 -467.76 489.68 1506.94 -281.78 -3020.34 1994.38 -3020.34 -1994.38zm1386.01 -291.93l379.05 196.73 -123.67 -253.84 -255.38 57.11zm448.21 -100.23l267.54 200.65 30.09 -63.06c17,-35.64 32.32,-74.8 41.59,-113.18 3.44,-14.24 11.85,-58.53 5.1,-73.31 -13.05,-9.88 -60.26,-9.13 -74.72,-8.14 -42.16,2.85 -86.88,12.53 -127.27,24.92l-3.47 1.06 -138.86 31.06zm2815.04 103.04l-250.97 -57.87 -122.67 251.79 373.64 -193.92zm-443.77 -102.33l-138.19 -31.86 -3.17 -0.97c-40.39,-12.39 -85.11,-22.07 -127.27,-24.92 -14.46,-0.99 -61.67,-1.74 -74.72,8.14 -6.75,14.78 1.66,59.07 5.1,73.31 9.27,38.38 24.59,77.54 41.59,113.18l30.09 63.06 266.57 -199.94zm-1840.15 397.63l72.42 54.3c6.21,4.66 20.53,14.99 31.39,20.32 22.94,-31.25 32.97,-96.07 33.52,-129.71 0.18,-11.35 -1.33,-34.59 -4.92,-54.52 -29,17.71 -64.87,47.45 -79.16,60.6l-53.25 49.01zm1310 0l-53.25 -49.01c-14.29,-13.15 -50.16,-42.89 -79.16,-60.6 -3.59,19.93 -5.1,43.17 -4.92,54.52 0.55,33.62 10.57,98.37 33.54,129.7 10.86,-5.33 25.17,-15.65 31.37,-20.31l72.42 -54.3z"/>
   <g>
    <g style="clip-path:url(#id0)">
     <image x="337.47" y="323.37" width="5373.14" height="4659.91" xlink:href="IFGC-Icone_Images\IFGC-Icone_ImgID1.png"/>
    </g>
   </g>
   <path class="fil1" d="M3019.81 4733.29l2152.01 -1396.35 -1158.99 216.72 603.05 -631.32 -744.39 386.33 179.03 -367.48 -339.21 254.41c-449.65,337.23 -508.95,-880.94 33.16,-382.1 -176.73,-370.39 15.95,-530.7 372.34,-421.43 -250.15,-141.81 -477.89,-444.17 -37.99,-624.82 -595.69,-46.17 -354.69,-428.18 -181.59,-708.3 -432.36,296.71 -774.73,232.8 -877.42,-224.45 -102.69,457.25 -445.06,521.16 -877.42,224.45 173.1,280.12 414.1,662.13 -181.59,708.3 439.9,180.65 212.16,483.01 -37.99,624.82 356.39,-109.27 549.07,51.04 372.34,421.43 542.11,-498.84 482.81,719.33 33.16,382.1l-339.21 -254.41 179.03 367.48 -744.39 -386.33 603.05 631.32 -1158.99 -216.72 2152.01 1396.35z"/>
   <g>
    <g style="clip-path:url(#id1)">
     <image x="1321.23" y="1030.31" width="3405.63" height="3672.54" xlink:href="IFGC-Icone_Images\IFGC-Icone_ImgID2.png"/>
    </g>
   </g>
   <path class="fil2" d="M3019.81 3887.4c73.39,-3.13 121.85,-54.99 124.56,-93.17l93.82 -1322.22 -218.38 -140.42 -218.38 140.42 93.82 1322.22c2.71,38.17 51.17,90.04 124.56,93.17z"/>
   <path class="fil3" d="M2867.23 2672.11l63.49 1063.04c0,0 10.05,52.94 58.16,47.51 -3.59,-161.28 -25.13,-1085.09 -25.13,-1085.09 0,0 -47.01,10.52 -96.52,-25.46z"/>
   <g>
    <path class="fil2" d="M3339.01 3670.86c174.72,48.44 291.25,135.44 291.25,234.73 0,152.07 -273.31,275.34 -610.45,275.34 -337.14,0 -610.45,-123.27 -610.45,-275.34 0,-99.29 116.53,-186.29 291.25,-234.73 -73.66,37.95 -118.81,89.04 -118.81,145.24 0,117.15 196.11,212.13 438.01,212.13 241.9,0 438.01,-94.98 438.01,-212.13 0,-56.2 -45.15,-107.29 -118.81,-145.24z"/>
    <path class="fil3" d="M2560.58 3761.07c-94.53,192.9 177.63,292.49 464.44,304.05 -280.51,77.8 -777.56,-93.54 -464.44,-304.05z"/>
   </g>
   <circle class="fil4" cx="3019.81" cy="2046.15" r="582.2"/>
   <ellipse class="fil5" transform="matrix(0.202042 0.158302 -0.158302 0.202042 2758.7 1759.37)" rx="267.76" ry="369.77"/>
   <path class="fil6" d="M3508.55 1837.2c27.45,64.14 42.67,134.77 42.67,208.95 0,293.49 -237.92,531.41 -531.41,531.41 -206.43,0 -385.37,-117.71 -473.37,-289.67 71.79,21.09 147.73,32.46 226.35,32.46 329.53,0 612.57,-198.88 735.76,-483.15z"/>
  </g>
 </g>
</svg>
